<svg height="512" width="512" xmlns="http://www.w3.org/2000/svg"><path d="m287.6477051 159.7150421c13.2720947 28.9824524 5.5168457 71.1325073-22.0496826 88.9328156-30.2588043 19.5387268-70.6276245 10.8484497-90.1664124-19.4103394-2.0971832-3.247818-3.8493958-6.6169586-5.3043671-10.059494l-170.127243 74.6478424v155.8238525h449.9364624v-136.6000671c-7.5940552-5.5408936-14.7739868-14.8708191-17.4102173-28.6268921-8.4024048-5.4386902-14.7566223-13.7796326-17.6420898-23.7417603-14.3924255-3.1244812-26.1994629-13.4213257-31.1464539-27.182724-16.4407043-3.0388489-29.6723022-15.4233856-33.7016907-31.5264435-13.4395142-3.7943115-22.0578613-11.8505402-26.5520935-24.7902069-11.6293945.554947-24.5086975-4.570404-35.8362121-17.4665832zm132.9812927 254.4988861h-392.4814835v-23.9745789h392.4814758v23.9745789zm0-79.8895263h-392.4814835v-24.9709167h392.4814758v24.9709167zm-161.9813843-178.9711915c-4.7371826-3.0589142-8.8928528-5.1672211-14.0811157-6.4168091-1.414566-6.2023621-2.8886871-12.325119-3.7037354-16.3554993-5.457077-26.9844131-17.6977844-53.2637863-42.1170349-67.6450348-11.3241577-6.7262268-26.5635681.334671-28.3417664 13.5127945-1.4943085 11.0742035 5.7852325 16.72332 14.4597015 21.0717163 17.927536 8.9868774 28.2569122 26.1275177 35.1427307 44.7253647.4766693 1.2875366.9369812 2.8635712 1.4339752 4.5580902-11.9424133 2.7243652-22.8747864 9.9236145-30.0443573 21.026825-14.5731812 22.5688171-8.0914307 52.6784363 14.4773865 67.2516174 22.5688782 14.5731659 52.678421 8.0914154 67.2516022-14.4774628 14.5732423-22.568817 8.0914918-52.6783751-14.4773864-67.2516021zm-11.7779541 33.8555604c-6.7216644 0-12.1707153-5.4490356-12.1707153-12.1707001 0-6.7217407 5.4490509-12.1707764 12.1707153-12.1707764 6.7217255 0 12.1707764 5.4490356 12.1707764 12.1707764 0 6.7216644-5.4490509 12.1707001-12.1707764 12.1707001zm241.0557862 122.3597106v138.0809326h-9.9640808-15.9425049v-141.9546813c-9.1609192-5.7748718-15.2520447-15.975708-15.2520447-27.6050415 0-.0241394.00177-.0477905.0018311-.0719299-12.7047424-3.634552-22.2366638-14.7791138-23.4863586-28.3263092-15.9015808-.3819275-29.2443237-12.1286316-31.6739807-27.4385834-17.3909607 0-31.8608093-13.605423-32.8225403-30.7557831-13.7712097-1.2553711-25.0613098-11.0695801-28.5193481-24.0779724-1.3266296.1642609-2.6748047.2587738-4.0458374.2587738-18.0136414 0-32.6165771-14.6029816-32.6165771-32.6166229s14.6029358-32.6165695 32.6165771-32.6165695c15.1098633 0 27.815094 10.2765427 31.5201721 24.2201462 1.3253479-.1639557 2.6722412-.2582855 4.0419312-.2582855 17.3909607 0 31.5990601 13.6120453 32.5608215 30.7624207 14.8954163 1.3578339 27.1560974 12.7184753 29.4726868 27.31604 16.9904785 0 31.2024231 12.9863739 32.7329102 29.5773468 17.6448059.4237671 31.8209534 14.8496552 31.8209534 32.5964355 0 .0260925-.0018616.0516968-.0019226.0777893 13.6424253 3.9027404 23.6318662 16.457199 23.6318662 31.3531036 0 15.0569152-10.2056274 27.7238769-24.0745544 31.4787902z"/></svg>