<svg viewBox="0 0 50 50" xmlns="http://www.w3.org/2000/svg"><path d="m29.09375 0c-.269531-.03125-.539062.046875-.75.21875-.210937.171875-.320312.417969-.34375.6875l-.1875 2.25h-6.09375l-.21875-2.21875c-.054687-.527344-.484375-.9023437-1.03125-.875l-7.34375.3125c-.273437.011719-.507812.136719-.6875.34375-.179687.207031-.277344.507813-.25.78125l.21875 2.0625-6.71875 1.21875c-.53125.097656-.894531.589844-.8125 1.125l1.8125 12.09375h-2.6875c-.3125 0-.625.15625-.8125.40625s-.242187.574219-.15625.875l8.40625 30c.121094.429688.519531.71875.96875.71875h25.1875c.449219 0 .847656-.289062.96875-.71875l8.40625-30c.085938-.300781.03125-.625-.15625-.875-.191406-.25-.5-.40625-.8125-.40625h-3.09375l1.65625-9c.050781-.273437-.023437-.558594-.1875-.78125-.164062-.222656-.414062-.375-.6875-.40625l-6.90625-.75.46875-5.15625c.050781-.542969-.335937-1-.875-1.0625zm-9.5 2.09375 2.5625 24.625c-2.546875-.519531-4.390625-1.695312-5.71875-3l-2.15625-21.375zm10.3125 0 5.28125.625-2 21.34375c-1.277344 1.148438-2.980469 2.144531-5.25 2.625zm-7.96875 3.0625h5.71875l-1.75 21.78125c-.300781.019531-.589844.0625-.90625.0625-.285156 0-.542969-.015625-.8125-.03125zm-9.34375.40625 1.5 14.96875c-.492187-.964844-.691406-1.6875-.71875-1.78125-.117187-.4375-.515625-.75-.96875-.75h-3.6875l-1.71875-11.4375zm24 3.46875 5.8125.65625-1.53125 8.3125h-3.28125c-.449219 0-.851562.316406-.96875.75-.035156.121094-.359375 1.226563-1.1875 2.59375z"/></svg>